<mxfile host="Electron" agent="Mozilla/5.0 (X11; Linux x86_64) AppleWebKit/537.36 (KHTML, like Gecko) draw.io/24.7.17 Chrome/128.0.6613.36 Electron/32.0.1 Safari/537.36" version="24.7.17">
  <diagram name="Page-1" id="JzKj8us2CXbhLtyAC8qE">
    <mxGraphModel dx="932" dy="666" grid="1" gridSize="10" guides="1" tooltips="1" connect="1" arrows="1" fold="1" page="1" pageScale="1" pageWidth="850" pageHeight="1100" math="1" shadow="0">
      <root>
        <mxCell id="0" />
        <mxCell id="1" parent="0" />
        <mxCell id="TYyMnVdzo0bnUDyxavS7-44" value="" style="shape=waypoint;sketch=0;fillStyle=solid;size=6;pointerEvents=1;points=[];fillColor=none;resizable=0;rotatable=0;perimeter=centerPerimeter;snapToPoint=1;" vertex="1" parent="1">
          <mxGeometry x="350" y="540" width="20" height="20" as="geometry" />
        </mxCell>
        <mxCell id="TYyMnVdzo0bnUDyxavS7-36" style="edgeStyle=orthogonalEdgeStyle;rounded=0;orthogonalLoop=1;jettySize=auto;html=1;exitX=0.25;exitY=1;exitDx=0;exitDy=0;entryX=0.621;entryY=0.618;entryDx=0;entryDy=0;entryPerimeter=0;endArrow=none;endFill=0;jumpStyle=arc;jumpSize=8;" edge="1" parent="1" source="TYyMnVdzo0bnUDyxavS7-24" target="TYyMnVdzo0bnUDyxavS7-28">
          <mxGeometry relative="1" as="geometry">
            <Array as="points">
              <mxPoint x="195" y="680" />
              <mxPoint x="140" y="680" />
            </Array>
          </mxGeometry>
        </mxCell>
        <mxCell id="TYyMnVdzo0bnUDyxavS7-16" value="" style="edgeStyle=orthogonalEdgeStyle;rounded=0;orthogonalLoop=1;jettySize=auto;html=1;endArrow=none;endFill=0;" edge="1" parent="1" source="TYyMnVdzo0bnUDyxavS7-2" target="TYyMnVdzo0bnUDyxavS7-7">
          <mxGeometry relative="1" as="geometry" />
        </mxCell>
        <mxCell id="TYyMnVdzo0bnUDyxavS7-2" value="$$1$$" style="rounded=0;whiteSpace=wrap;html=1;" vertex="1" parent="1">
          <mxGeometry x="240" y="440" width="80" height="40" as="geometry" />
        </mxCell>
        <mxCell id="TYyMnVdzo0bnUDyxavS7-3" value="$$2$$" style="rounded=0;whiteSpace=wrap;html=1;" vertex="1" parent="1">
          <mxGeometry x="400" y="440" width="80" height="40" as="geometry" />
        </mxCell>
        <mxCell id="TYyMnVdzo0bnUDyxavS7-4" value="" style="rounded=0;whiteSpace=wrap;html=1;" vertex="1" parent="1">
          <mxGeometry x="320" y="450" width="10" height="20" as="geometry" />
        </mxCell>
        <mxCell id="TYyMnVdzo0bnUDyxavS7-5" value="" style="rounded=0;whiteSpace=wrap;html=1;" vertex="1" parent="1">
          <mxGeometry x="390" y="450" width="10" height="20" as="geometry" />
        </mxCell>
        <mxCell id="TYyMnVdzo0bnUDyxavS7-40" style="edgeStyle=orthogonalEdgeStyle;rounded=0;orthogonalLoop=1;jettySize=auto;html=1;endArrow=none;endFill=0;jumpStyle=arc;jumpSize=8;" edge="1" parent="1" source="TYyMnVdzo0bnUDyxavS7-49" target="TYyMnVdzo0bnUDyxavS7-37">
          <mxGeometry relative="1" as="geometry">
            <mxPoint x="280" y="520" as="sourcePoint" />
          </mxGeometry>
        </mxCell>
        <mxCell id="TYyMnVdzo0bnUDyxavS7-45" style="edgeStyle=orthogonalEdgeStyle;rounded=0;orthogonalLoop=1;jettySize=auto;html=1;exitX=0.5;exitY=1;exitDx=0;exitDy=0;endArrow=none;endFill=0;" edge="1" parent="1" source="TYyMnVdzo0bnUDyxavS7-6" target="TYyMnVdzo0bnUDyxavS7-44">
          <mxGeometry relative="1" as="geometry" />
        </mxCell>
        <mxCell id="TYyMnVdzo0bnUDyxavS7-103" style="edgeStyle=orthogonalEdgeStyle;rounded=0;orthogonalLoop=1;jettySize=auto;html=1;exitX=1;exitY=0.5;exitDx=0;exitDy=0;endArrow=none;endFill=0;" edge="1" parent="1" source="TYyMnVdzo0bnUDyxavS7-6" target="TYyMnVdzo0bnUDyxavS7-99">
          <mxGeometry relative="1" as="geometry" />
        </mxCell>
        <mxCell id="TYyMnVdzo0bnUDyxavS7-6" value="$$\textrm{Coincidence}$$" style="rounded=0;whiteSpace=wrap;html=1;" vertex="1" parent="1">
          <mxGeometry x="320" y="500" width="80" height="40" as="geometry" />
        </mxCell>
        <mxCell id="TYyMnVdzo0bnUDyxavS7-7" value="$$&amp;lt;$$" style="whiteSpace=wrap;html=1;aspect=fixed;" vertex="1" parent="1">
          <mxGeometry x="160" y="440" width="40" height="40" as="geometry" />
        </mxCell>
        <mxCell id="TYyMnVdzo0bnUDyxavS7-18" value="" style="group" vertex="1" connectable="0" parent="1">
          <mxGeometry x="80" y="440" width="40" height="40" as="geometry" />
        </mxCell>
        <mxCell id="TYyMnVdzo0bnUDyxavS7-8" value="" style="whiteSpace=wrap;html=1;aspect=fixed;" vertex="1" parent="TYyMnVdzo0bnUDyxavS7-18">
          <mxGeometry width="40" height="40" as="geometry" />
        </mxCell>
        <mxCell id="TYyMnVdzo0bnUDyxavS7-9" value="" style="curved=1;endArrow=none;html=1;rounded=0;strokeColor=default;endFill=0;" edge="1" parent="TYyMnVdzo0bnUDyxavS7-18">
          <mxGeometry width="50" height="50" relative="1" as="geometry">
            <mxPoint x="3" y="35" as="sourcePoint" />
            <mxPoint x="33" y="33" as="targetPoint" />
            <Array as="points">
              <mxPoint x="5" y="16" />
              <mxPoint x="20" y="10" />
              <mxPoint x="26" y="33" />
            </Array>
          </mxGeometry>
        </mxCell>
        <mxCell id="TYyMnVdzo0bnUDyxavS7-12" value="" style="endArrow=none;dashed=1;html=1;rounded=0;exitX=0;exitY=0.25;exitDx=0;exitDy=0;entryX=1;entryY=0.25;entryDx=0;entryDy=0;" edge="1" parent="TYyMnVdzo0bnUDyxavS7-18">
          <mxGeometry width="50" height="50" relative="1" as="geometry">
            <mxPoint y="8" as="sourcePoint" />
            <mxPoint x="40" y="8" as="targetPoint" />
          </mxGeometry>
        </mxCell>
        <mxCell id="TYyMnVdzo0bnUDyxavS7-13" value="" style="endArrow=none;dashed=1;html=1;rounded=0;exitX=0.042;exitY=0.279;exitDx=0;exitDy=0;exitPerimeter=0;entryX=1;entryY=0.5;entryDx=0;entryDy=0;" edge="1" parent="TYyMnVdzo0bnUDyxavS7-18">
          <mxGeometry width="50" height="50" relative="1" as="geometry">
            <mxPoint x="0.3199999999999932" y="17.420000000000016" as="sourcePoint" />
            <mxPoint x="40" y="17" as="targetPoint" />
          </mxGeometry>
        </mxCell>
        <mxCell id="TYyMnVdzo0bnUDyxavS7-39" style="edgeStyle=orthogonalEdgeStyle;rounded=0;orthogonalLoop=1;jettySize=auto;html=1;exitX=0.5;exitY=0;exitDx=0;exitDy=0;endArrow=none;endFill=0;" edge="1" parent="1" source="TYyMnVdzo0bnUDyxavS7-21" target="TYyMnVdzo0bnUDyxavS7-37">
          <mxGeometry relative="1" as="geometry" />
        </mxCell>
        <mxCell id="TYyMnVdzo0bnUDyxavS7-21" value="$$\textrm{C}$$" style="rounded=0;whiteSpace=wrap;html=1;" vertex="1" parent="1">
          <mxGeometry x="80" y="540" width="40" height="40" as="geometry" />
        </mxCell>
        <mxCell id="TYyMnVdzo0bnUDyxavS7-24" value="$$\textrm{MCA}$$" style="rounded=0;whiteSpace=wrap;html=1;" vertex="1" parent="1">
          <mxGeometry x="170" y="600" width="100" height="60" as="geometry" />
        </mxCell>
        <mxCell id="TYyMnVdzo0bnUDyxavS7-52" style="edgeStyle=orthogonalEdgeStyle;rounded=0;orthogonalLoop=1;jettySize=auto;html=1;exitX=0;exitY=0.5;exitDx=0;exitDy=0;endArrow=none;endFill=0;" edge="1" parent="1" source="TYyMnVdzo0bnUDyxavS7-25" target="TYyMnVdzo0bnUDyxavS7-49">
          <mxGeometry relative="1" as="geometry" />
        </mxCell>
        <mxCell id="TYyMnVdzo0bnUDyxavS7-104" value="$$\textrm{Start}$$" style="edgeLabel;html=1;align=center;verticalAlign=middle;resizable=0;points=[];labelBackgroundColor=none;" vertex="1" connectable="0" parent="TYyMnVdzo0bnUDyxavS7-52">
          <mxGeometry x="-0.8604" y="1" relative="1" as="geometry">
            <mxPoint x="-10" y="9" as="offset" />
          </mxGeometry>
        </mxCell>
        <mxCell id="TYyMnVdzo0bnUDyxavS7-55" style="edgeStyle=orthogonalEdgeStyle;rounded=0;orthogonalLoop=1;jettySize=auto;html=1;exitX=0.5;exitY=1;exitDx=0;exitDy=0;entryX=0.75;entryY=1;entryDx=0;entryDy=0;endArrow=none;endFill=0;" edge="1" parent="1" source="TYyMnVdzo0bnUDyxavS7-25" target="TYyMnVdzo0bnUDyxavS7-24">
          <mxGeometry relative="1" as="geometry">
            <Array as="points">
              <mxPoint x="360" y="680" />
              <mxPoint x="245" y="680" />
            </Array>
          </mxGeometry>
        </mxCell>
        <mxCell id="TYyMnVdzo0bnUDyxavS7-25" value="$$\textrm{TAC}$$" style="rounded=0;whiteSpace=wrap;html=1;" vertex="1" parent="1">
          <mxGeometry x="320" y="620" width="80" height="40" as="geometry" />
        </mxCell>
        <mxCell id="TYyMnVdzo0bnUDyxavS7-26" value="" style="verticalLabelPosition=top;verticalAlign=bottom;html=1;shape=mxgraph.basic.8_point_star;labelPosition=center;align=center;" vertex="1" parent="1">
          <mxGeometry x="350" y="450" width="20" height="20" as="geometry" />
        </mxCell>
        <mxCell id="TYyMnVdzo0bnUDyxavS7-28" value="" style="shape=waypoint;sketch=0;fillStyle=solid;size=6;pointerEvents=1;points=[];fillColor=none;resizable=0;rotatable=0;perimeter=centerPerimeter;snapToPoint=1;" vertex="1" parent="1">
          <mxGeometry x="130" y="450" width="20" height="20" as="geometry" />
        </mxCell>
        <mxCell id="TYyMnVdzo0bnUDyxavS7-32" style="edgeStyle=orthogonalEdgeStyle;rounded=0;orthogonalLoop=1;jettySize=auto;html=1;exitX=0;exitY=0.5;exitDx=0;exitDy=0;entryX=0.639;entryY=0.462;entryDx=0;entryDy=0;entryPerimeter=0;endArrow=none;endFill=0;" edge="1" parent="1" source="TYyMnVdzo0bnUDyxavS7-7" target="TYyMnVdzo0bnUDyxavS7-28">
          <mxGeometry relative="1" as="geometry" />
        </mxCell>
        <mxCell id="TYyMnVdzo0bnUDyxavS7-35" style="edgeStyle=orthogonalEdgeStyle;rounded=0;orthogonalLoop=1;jettySize=auto;html=1;exitX=1;exitY=0.5;exitDx=0;exitDy=0;endArrow=none;endFill=0;" edge="1" parent="1" source="TYyMnVdzo0bnUDyxavS7-8" target="TYyMnVdzo0bnUDyxavS7-28">
          <mxGeometry relative="1" as="geometry" />
        </mxCell>
        <mxCell id="TYyMnVdzo0bnUDyxavS7-37" value="" style="shape=waypoint;sketch=0;fillStyle=solid;size=6;pointerEvents=1;points=[];fillColor=none;resizable=0;rotatable=0;perimeter=centerPerimeter;snapToPoint=1;" vertex="1" parent="1">
          <mxGeometry x="90" y="510" width="20" height="20" as="geometry" />
        </mxCell>
        <mxCell id="TYyMnVdzo0bnUDyxavS7-38" style="edgeStyle=orthogonalEdgeStyle;rounded=0;orthogonalLoop=1;jettySize=auto;html=1;exitX=0.5;exitY=1;exitDx=0;exitDy=0;entryX=0.682;entryY=0.476;entryDx=0;entryDy=0;entryPerimeter=0;endArrow=none;endFill=0;" edge="1" parent="1" source="TYyMnVdzo0bnUDyxavS7-8" target="TYyMnVdzo0bnUDyxavS7-37">
          <mxGeometry relative="1" as="geometry" />
        </mxCell>
        <mxCell id="TYyMnVdzo0bnUDyxavS7-46" style="edgeStyle=orthogonalEdgeStyle;rounded=0;orthogonalLoop=1;jettySize=auto;html=1;exitX=0.5;exitY=0;exitDx=0;exitDy=0;endArrow=none;endFill=0;" edge="1" parent="1" source="TYyMnVdzo0bnUDyxavS7-43" target="TYyMnVdzo0bnUDyxavS7-44">
          <mxGeometry relative="1" as="geometry" />
        </mxCell>
        <mxCell id="TYyMnVdzo0bnUDyxavS7-43" value="$$\textrm{C}$$" style="rounded=0;whiteSpace=wrap;html=1;" vertex="1" parent="1">
          <mxGeometry x="320" y="560" width="80" height="40" as="geometry" />
        </mxCell>
        <mxCell id="TYyMnVdzo0bnUDyxavS7-49" value="" style="shape=waypoint;sketch=0;fillStyle=solid;size=6;pointerEvents=1;points=[];fillColor=none;resizable=0;rotatable=0;perimeter=centerPerimeter;snapToPoint=1;" vertex="1" parent="1">
          <mxGeometry x="290" y="510" width="20" height="20" as="geometry" />
        </mxCell>
        <mxCell id="TYyMnVdzo0bnUDyxavS7-51" style="edgeStyle=orthogonalEdgeStyle;rounded=0;orthogonalLoop=1;jettySize=auto;html=1;exitX=0;exitY=0.5;exitDx=0;exitDy=0;entryX=0.674;entryY=0.526;entryDx=0;entryDy=0;entryPerimeter=0;endArrow=none;endFill=0;" edge="1" parent="1" source="TYyMnVdzo0bnUDyxavS7-6" target="TYyMnVdzo0bnUDyxavS7-49">
          <mxGeometry relative="1" as="geometry" />
        </mxCell>
        <mxCell id="TYyMnVdzo0bnUDyxavS7-85" value="" style="edgeStyle=orthogonalEdgeStyle;rounded=0;orthogonalLoop=1;jettySize=auto;html=1;endArrow=none;endFill=0;entryX=1;entryY=0.5;entryDx=0;entryDy=0;exitX=0;exitY=0.5;exitDx=0;exitDy=0;" edge="1" target="TYyMnVdzo0bnUDyxavS7-3" parent="1" source="TYyMnVdzo0bnUDyxavS7-86">
          <mxGeometry relative="1" as="geometry">
            <mxPoint x="680" y="460.5128205128203" as="sourcePoint" />
          </mxGeometry>
        </mxCell>
        <mxCell id="TYyMnVdzo0bnUDyxavS7-86" value="$$&amp;lt;$$" style="whiteSpace=wrap;html=1;aspect=fixed;flipV=0;" vertex="1" parent="1">
          <mxGeometry x="520" y="440" width="40" height="40" as="geometry" />
        </mxCell>
        <mxCell id="TYyMnVdzo0bnUDyxavS7-87" value="" style="group;flipV=0;" vertex="1" connectable="0" parent="1">
          <mxGeometry x="600" y="440" width="40" height="40" as="geometry" />
        </mxCell>
        <mxCell id="TYyMnVdzo0bnUDyxavS7-88" value="" style="whiteSpace=wrap;html=1;aspect=fixed;" vertex="1" parent="TYyMnVdzo0bnUDyxavS7-87">
          <mxGeometry width="40" height="40" as="geometry" />
        </mxCell>
        <mxCell id="TYyMnVdzo0bnUDyxavS7-89" value="" style="curved=1;endArrow=none;html=1;rounded=0;strokeColor=default;endFill=0;" edge="1" parent="TYyMnVdzo0bnUDyxavS7-87">
          <mxGeometry width="50" height="50" relative="1" as="geometry">
            <mxPoint x="3" y="35" as="sourcePoint" />
            <mxPoint x="33" y="33" as="targetPoint" />
            <Array as="points">
              <mxPoint x="5" y="16" />
              <mxPoint x="20" y="10" />
              <mxPoint x="26" y="33" />
            </Array>
          </mxGeometry>
        </mxCell>
        <mxCell id="TYyMnVdzo0bnUDyxavS7-90" value="" style="endArrow=none;dashed=1;html=1;rounded=0;exitX=0;exitY=0.25;exitDx=0;exitDy=0;entryX=1;entryY=0.25;entryDx=0;entryDy=0;" edge="1" parent="TYyMnVdzo0bnUDyxavS7-87">
          <mxGeometry width="50" height="50" relative="1" as="geometry">
            <mxPoint y="8" as="sourcePoint" />
            <mxPoint x="40" y="8" as="targetPoint" />
          </mxGeometry>
        </mxCell>
        <mxCell id="TYyMnVdzo0bnUDyxavS7-91" value="" style="endArrow=none;dashed=1;html=1;rounded=0;exitX=0.042;exitY=0.279;exitDx=0;exitDy=0;exitPerimeter=0;entryX=1;entryY=0.5;entryDx=0;entryDy=0;" edge="1" parent="TYyMnVdzo0bnUDyxavS7-87">
          <mxGeometry width="50" height="50" relative="1" as="geometry">
            <mxPoint x="0.3199999999999932" y="17.420000000000016" as="sourcePoint" />
            <mxPoint x="40" y="17" as="targetPoint" />
          </mxGeometry>
        </mxCell>
        <mxCell id="TYyMnVdzo0bnUDyxavS7-106" value="" style="edgeStyle=orthogonalEdgeStyle;rounded=0;orthogonalLoop=1;jettySize=auto;html=1;exitX=0.5;exitY=1;exitDx=0;exitDy=0;endArrow=none;endFill=0;" edge="1" parent="1" source="TYyMnVdzo0bnUDyxavS7-88" target="TYyMnVdzo0bnUDyxavS7-100">
          <mxGeometry relative="1" as="geometry" />
        </mxCell>
        <mxCell id="TYyMnVdzo0bnUDyxavS7-92" value="" style="shape=waypoint;sketch=0;fillStyle=solid;size=6;pointerEvents=1;points=[];fillColor=none;resizable=0;rotatable=0;perimeter=centerPerimeter;snapToPoint=1;flipV=0;" vertex="1" parent="1">
          <mxGeometry x="570" y="450" width="20" height="20" as="geometry" />
        </mxCell>
        <mxCell id="TYyMnVdzo0bnUDyxavS7-93" style="edgeStyle=orthogonalEdgeStyle;rounded=0;orthogonalLoop=1;jettySize=auto;html=1;exitX=1;exitY=0.5;exitDx=0;exitDy=0;entryX=0.639;entryY=0.462;entryDx=0;entryDy=0;entryPerimeter=0;endArrow=none;endFill=0;" edge="1" source="TYyMnVdzo0bnUDyxavS7-86" target="TYyMnVdzo0bnUDyxavS7-92" parent="1">
          <mxGeometry relative="1" as="geometry">
            <mxPoint x="760" y="530" as="sourcePoint" />
          </mxGeometry>
        </mxCell>
        <mxCell id="TYyMnVdzo0bnUDyxavS7-94" style="edgeStyle=orthogonalEdgeStyle;rounded=0;orthogonalLoop=1;jettySize=auto;html=1;exitX=0;exitY=0.5;exitDx=0;exitDy=0;endArrow=none;endFill=0;" edge="1" source="TYyMnVdzo0bnUDyxavS7-88" target="TYyMnVdzo0bnUDyxavS7-92" parent="1">
          <mxGeometry relative="1" as="geometry" />
        </mxCell>
        <mxCell id="TYyMnVdzo0bnUDyxavS7-96" style="edgeStyle=orthogonalEdgeStyle;rounded=0;orthogonalLoop=1;jettySize=auto;html=1;exitX=0.5;exitY=0;exitDx=0;exitDy=0;endArrow=none;endFill=0;entryX=0.406;entryY=0.387;entryDx=0;entryDy=0;entryPerimeter=0;" edge="1" source="TYyMnVdzo0bnUDyxavS7-97" target="TYyMnVdzo0bnUDyxavS7-100" parent="1">
          <mxGeometry relative="1" as="geometry" />
        </mxCell>
        <mxCell id="TYyMnVdzo0bnUDyxavS7-97" value="$$\textrm{C}$$" style="rounded=0;whiteSpace=wrap;html=1;" vertex="1" parent="1">
          <mxGeometry x="600" y="540" width="40" height="40" as="geometry" />
        </mxCell>
        <mxCell id="TYyMnVdzo0bnUDyxavS7-102" value="" style="edgeStyle=orthogonalEdgeStyle;rounded=0;orthogonalLoop=1;jettySize=auto;html=1;entryX=1;entryY=0.5;entryDx=0;entryDy=0;endArrow=none;endFill=0;" edge="1" parent="1" source="TYyMnVdzo0bnUDyxavS7-99" target="TYyMnVdzo0bnUDyxavS7-25">
          <mxGeometry relative="1" as="geometry">
            <Array as="points">
              <mxPoint x="420" y="640" />
            </Array>
          </mxGeometry>
        </mxCell>
        <mxCell id="TYyMnVdzo0bnUDyxavS7-105" value="$$\textrm{Stop}$$" style="edgeLabel;html=1;align=center;verticalAlign=middle;resizable=0;points=[];labelBackgroundColor=none;" vertex="1" connectable="0" parent="TYyMnVdzo0bnUDyxavS7-102">
          <mxGeometry x="0.874" relative="1" as="geometry">
            <mxPoint x="11" y="10" as="offset" />
          </mxGeometry>
        </mxCell>
        <mxCell id="TYyMnVdzo0bnUDyxavS7-99" value="" style="shape=waypoint;sketch=0;fillStyle=solid;size=6;pointerEvents=1;points=[];fillColor=none;resizable=0;rotatable=0;perimeter=centerPerimeter;snapToPoint=1;" vertex="1" parent="1">
          <mxGeometry x="410" y="509.97" width="20" height="20" as="geometry" />
        </mxCell>
        <mxCell id="TYyMnVdzo0bnUDyxavS7-100" value="" style="shape=waypoint;sketch=0;fillStyle=solid;size=6;pointerEvents=1;points=[];fillColor=none;resizable=0;rotatable=0;perimeter=centerPerimeter;snapToPoint=1;" vertex="1" parent="1">
          <mxGeometry x="610" y="509.97" width="20" height="20" as="geometry" />
        </mxCell>
        <mxCell id="TYyMnVdzo0bnUDyxavS7-101" value="" style="edgeStyle=orthogonalEdgeStyle;rounded=0;orthogonalLoop=1;jettySize=auto;html=1;endArrow=none;endFill=0;entryX=0.5;entryY=1;entryDx=0;entryDy=0;" edge="1" parent="1" source="TYyMnVdzo0bnUDyxavS7-88" target="TYyMnVdzo0bnUDyxavS7-24">
          <mxGeometry relative="1" as="geometry">
            <mxPoint x="130" y="690" as="targetPoint" />
            <Array as="points">
              <mxPoint x="580" y="460" />
              <mxPoint x="580" y="690" />
              <mxPoint x="220" y="690" />
            </Array>
          </mxGeometry>
        </mxCell>
        <mxCell id="TYyMnVdzo0bnUDyxavS7-47" style="edgeStyle=orthogonalEdgeStyle;rounded=0;orthogonalLoop=1;jettySize=auto;html=1;exitX=0.75;exitY=0;exitDx=0;exitDy=0;endArrow=none;endFill=0;jumpStyle=arc;jumpSize=8;" edge="1" parent="1" source="TYyMnVdzo0bnUDyxavS7-24">
          <mxGeometry relative="1" as="geometry">
            <mxPoint x="360" y="550" as="targetPoint" />
            <Array as="points">
              <mxPoint x="245" y="550" />
            </Array>
          </mxGeometry>
        </mxCell>
        <mxCell id="TYyMnVdzo0bnUDyxavS7-48" value="$$\textrm{Gate}$$" style="edgeLabel;html=1;align=center;verticalAlign=middle;resizable=0;points=[];labelBackgroundColor=none;" vertex="1" connectable="0" parent="TYyMnVdzo0bnUDyxavS7-47">
          <mxGeometry x="-0.8194" relative="1" as="geometry">
            <mxPoint x="-19" y="-6" as="offset" />
          </mxGeometry>
        </mxCell>
        <mxCell id="TYyMnVdzo0bnUDyxavS7-95" style="edgeStyle=orthogonalEdgeStyle;rounded=0;orthogonalLoop=1;jettySize=auto;html=1;endArrow=none;endFill=0;jumpStyle=arc;jumpSize=8;" edge="1" source="TYyMnVdzo0bnUDyxavS7-100" target="TYyMnVdzo0bnUDyxavS7-99" parent="1">
          <mxGeometry relative="1" as="geometry">
            <mxPoint x="600" y="519.97" as="sourcePoint" />
          </mxGeometry>
        </mxCell>
        <mxCell id="TYyMnVdzo0bnUDyxavS7-107" value="&lt;span style=&quot;text-wrap: nowrap;&quot;&gt;$$^{57}\textrm{Co}$$&lt;/span&gt;" style="text;html=1;align=center;verticalAlign=middle;whiteSpace=wrap;rounded=0;" vertex="1" parent="1">
          <mxGeometry x="330" y="420" width="60" height="30" as="geometry" />
        </mxCell>
      </root>
    </mxGraphModel>
  </diagram>
</mxfile>
